<?xml version="1.0" encoding="UTF-8" standalone="no"?>
<!-- Created with Inkscape (http://www.inkscape.org/) -->

<svg
   version="1.1"
   id="svg2"
   width="793.70135"
   height="561.26001"
   viewBox="200 150 396.85068 280.63001"
   sodipodi:docname="Craic Coffee 定版.ai"
   xmlns:inkscape="http://www.inkscape.org/namespaces/inkscape"
   xmlns:sodipodi="http://sodipodi.sourceforge.net/DTD/sodipodi-0.dtd"
   xmlns="http://www.w3.org/2000/svg"
   xmlns:svg="http://www.w3.org/2000/svg">
  <defs
     id="defs6">
    <clipPath
       clipPathUnits="userSpaceOnUse"
       id="clipPath16">
      <path
         d="M 0,420.945 H 595.276 V 0 H 0 Z"
         id="path14" />
    </clipPath>
  </defs>
  <sodipodi:namedview
     id="namedview4"
     pagecolor="#ffffff"
     bordercolor="#000000"
     borderopacity="0.25"
     inkscape:showpageshadow="2"
     inkscape:pageopacity="0.0"
     inkscape:pagecheckerboard="0"
     inkscape:deskcolor="#d1d1d1" />
  <g
     id="g8"
     inkscape:groupmode="layer"
     inkscape:label="Craic Coffee 定版"
     transform="matrix(1.3333333,0,0,-1.3333333,0,561.26)">
    <g
       id="g10">
      <g
         id="g12"
         clip-path="url(#clipPath16)">
        <g
           id="g18"
           transform="translate(318.63,204.6455)">
          <path
             d="m 0,0 c -0.73,-0.36 -1.31,-0.95 -1.68,-1.7 -3.11,-6.34 -9.88,-10.44 -17.24,-10.44 -2.85,0 -5.58,0.58 -8.11,1.73 -0.47,0.21 -0.98,0.32 -1.48,0.32 -0.5,0 -1,-0.11 -1.47,-0.32 -2.55,-1.15 -5.28,-1.73 -8.12,-1.73 -7.35,0 -14.12,4.1 -17.23,10.43 -0.37,0.75 -0.95,1.34 -1.68,1.7 -6.34,3.13 -10.28,9.29 -10.28,16.08 0,5.34 2.45,10.37 6.73,13.82 1.01,0.8 1.5,2.14 1.3,3.47 -0.1,0.69 -0.16,1.39 -0.16,2.09 0,7 5.25,12.99 12.48,14.25 0.98,0.17 1.84,0.73 2.42,1.58 3.52,5.22 9.51,8.33 16.01,8.33 6.51,0 12.49,-3.11 16.01,-8.33 0.58,-0.85 1.44,-1.41 2.42,-1.58 7.23,-1.26 12.47,-7.25 12.47,-14.25 0,-0.7 -0.05,-1.4 -0.15,-2.08 C 2.03,32.03 2.53,30.7 3.53,29.89 7.82,26.44 10.27,21.41 10.27,16.07 10.27,9.28 6.34,3.12 0,0 m 5.13,31.88 c -0.3,0.24 -0.44,0.66 -0.38,1.1 0.13,0.81 0.19,1.65 0.19,2.47 0,8.24 -6.13,15.29 -14.58,16.76 -0.3,0.05 -0.56,0.23 -0.75,0.5 -3.99,5.92 -10.76,9.45 -18.12,9.45 -7.35,0 -14.13,-3.53 -18.13,-9.45 -0.18,-0.27 -0.44,-0.45 -0.74,-0.5 -8.45,-1.48 -14.58,-8.52 -14.58,-16.76 0,-0.83 0.06,-1.66 0.18,-2.47 0.07,-0.44 -0.07,-0.87 -0.38,-1.11 -4.88,-3.93 -7.68,-9.69 -7.68,-15.8 0,-7.77 4.48,-14.81 11.7,-18.36 0.22,-0.11 0.4,-0.3 0.52,-0.54 2.52,-5.12 7.12,-8.95 12.56,-10.74 V -17 c 0,-1.69 1.38,-3.07 3.09,-3.07 1.69,0 3.07,1.38 3.07,3.07 v 2.32 c 0.27,-0.01 0.53,-0.01 0.8,-0.01 3.2,0 6.29,0.66 9.17,1.96 0.27,0.12 0.57,0.12 0.85,0 2.86,-1.3 5.95,-1.96 9.16,-1.96 0.27,0 0.53,0 0.8,0.01 V -17 c 0,-1.69 1.38,-3.07 3.08,-3.07 1.7,0 3.07,1.38 3.07,3.07 v 3.42 c 5.45,1.79 10.06,5.63 12.58,10.76 0.12,0.24 0.3,0.42 0.52,0.53 7.21,3.56 11.69,10.6 11.69,18.36 0,6.11 -2.8,11.87 -7.69,15.81"
             style="fill:#000000;fill-opacity:1;fill-rule:nonzero;stroke:none"
             id="path20" />
        </g>
        <g
           id="g22"
           transform="translate(298.5536,227.5019)">
          <path
             d="M 0,0 C -0.114,1.155 -1.093,2.061 -2.269,2.061 -3.445,2.061 -4.434,1.155 -4.548,0 H -6.63 c 0.115,2.3 2.019,4.142 4.361,4.142 C 0.062,4.142 1.967,2.3 2.082,0 Z m -12.885,0 c -0.115,1.155 -1.103,2.061 -2.28,2.061 -1.176,0 -2.154,-0.906 -2.269,-2.061 h -2.081 c 0.114,2.3 2.019,4.142 4.35,4.142 2.342,0 4.247,-1.842 4.361,-4.142 z m 33.087,5.631 c -3.632,5.235 -9.992,7.452 -15.841,6.068 -3.039,3.205 -7.64,4.787 -12.792,4.787 -5.152,0 -9.762,-1.582 -12.801,-4.787 -1.145,0.27 -2.311,0.406 -3.466,0.406 -4.767,0 -9.451,-2.259 -12.376,-6.474 -0.052,-0.073 -0.083,-0.156 -0.083,-0.24 0,-0.135 0.063,-0.26 0.187,-0.343 3.654,-2.54 8.035,-3.227 12.043,-2.279 -0.032,-0.458 -0.052,-0.927 -0.052,-1.416 0,-10.148 7.41,-24.334 16.548,-24.334 9.128,0 16.539,14.186 16.539,24.334 0,0.489 -0.021,0.958 -0.052,1.416 1.134,-0.271 2.31,-0.406 3.487,-0.406 2.956,0 5.943,0.874 8.555,2.685 0.125,0.083 0.187,0.208 0.187,0.343 0,0.084 -0.031,0.167 -0.083,0.24"
             style="fill:#000000;fill-opacity:1;fill-rule:nonzero;stroke:none"
             id="path24" />
        </g>
        <g
           id="g26"
           transform="translate(241.5222,162.4797)">
          <path
             d="m 0,0 c -1.012,0 -1.903,0.16 -2.671,0.478 -0.77,0.318 -1.396,0.776 -1.879,1.372 -0.485,0.597 -0.81,1.328 -0.975,2.196 -0.167,0.868 -0.153,1.851 0.04,2.948 0.182,1.031 0.489,2.006 0.922,2.929 0.433,0.921 0.964,1.728 1.592,2.419 0.628,0.691 1.345,1.24 2.152,1.647 0.806,0.406 1.674,0.61 2.603,0.61 0.527,0 0.994,-0.082 1.401,-0.245 C 3.594,14.191 3.928,13.968 4.191,13.682 4.452,13.397 4.635,13.056 4.739,12.663 4.843,12.269 4.853,11.841 4.772,11.379 4.703,10.985 4.588,10.615 4.431,10.268 4.272,9.922 4.084,9.623 3.867,9.372 3.649,9.121 3.414,8.924 3.16,8.781 2.906,8.638 2.647,8.567 2.383,8.567 2.051,8.567 1.786,8.678 1.59,8.899 1.392,9.121 1.323,9.392 1.38,9.714 c 0.029,0.161 0.085,0.302 0.168,0.423 0.083,0.121 0.178,0.242 0.283,0.362 0.103,0.121 0.199,0.248 0.285,0.382 0.087,0.135 0.145,0.289 0.175,0.464 0.048,0.268 -0.017,0.492 -0.192,0.674 -0.177,0.181 -0.46,0.272 -0.847,0.272 -0.471,0 -0.934,-0.128 -1.388,-0.383 C -0.59,11.653 -1.01,11.294 -1.397,10.831 -1.783,10.368 -2.123,9.814 -2.417,9.17 -2.712,8.527 -2.926,7.815 -3.063,7.037 -3.186,6.339 -3.211,5.699 -3.133,5.115 c 0.078,-0.584 0.263,-1.087 0.555,-1.51 0.293,-0.423 0.7,-0.751 1.22,-0.986 0.52,-0.235 1.155,-0.352 1.903,-0.352 1.081,0 2.008,0.265 2.782,0.795 0.772,0.53 1.389,1.197 1.851,2.003 C 5.279,5.253 5.445,5.41 5.677,5.538 5.907,5.665 6.14,5.729 6.376,5.729 6.723,5.729 6.99,5.613 7.178,5.382 7.366,5.151 7.431,4.88 7.376,4.567 7.348,4.404 7.295,4.261 7.219,4.139 6.908,3.554 6.516,3.011 6.047,2.508 5.577,2.005 5.038,1.566 4.432,1.193 3.825,0.819 3.153,0.527 2.416,0.316 1.678,0.106 0.873,0 0,0"
             style="fill:#000000;fill-opacity:1;fill-rule:nonzero;stroke:none"
             id="path28" />
        </g>
        <g
           id="g30"
           transform="translate(258.2361,168.2194)">
          <path
             d="M 0,0 C 0.36,0 0.628,-0.129 0.805,-0.385 0.981,-0.641 1.042,-0.928 0.985,-1.248 0.978,-1.289 0.968,-1.331 0.953,-1.373 0.938,-1.414 0.929,-1.449 0.925,-1.476 L 0.769,-1.768 C 0.501,-2.267 0.175,-2.759 -0.208,-3.244 -0.593,-3.729 -1.025,-4.169 -1.502,-4.565 -1.981,-4.96 -2.491,-5.279 -3.033,-5.521 -3.575,-5.764 -4.13,-5.885 -4.698,-5.885 c -1.04,0 -1.788,0.263 -2.242,0.79 -0.455,0.527 -0.595,1.29 -0.418,2.288 0.078,0.443 0.203,0.842 0.376,1.195 0.173,0.354 0.383,0.753 0.628,1.196 0.103,0.194 0.212,0.399 0.326,0.613 0.113,0.216 0.192,0.441 0.233,0.677 0.035,0.194 0.004,0.356 -0.09,0.488 C -5.98,1.494 -6.11,1.601 -6.275,1.684 -6.441,1.768 -6.63,1.837 -6.841,1.893 -7.054,1.947 -7.266,2.003 -7.478,2.059 -7.71,1.532 -7.995,0.953 -8.335,0.323 -8.675,-0.308 -9.041,-0.95 -9.433,-1.601 -9.73,-2.1 -10.175,-2.35 -10.772,-2.35 c -0.332,0 -0.582,0.117 -0.749,0.354 -0.166,0.235 -0.222,0.506 -0.168,0.81 0.028,0.153 0.09,0.319 0.192,0.5 l 0.112,0.166 c 0.334,0.555 0.657,1.13 0.97,1.726 0.313,0.596 0.571,1.151 0.772,1.664 -0.146,0.193 -0.223,0.385 -0.231,0.572 -0.01,0.187 0,0.356 0.026,0.51 0.022,0.124 0.079,0.266 0.169,0.426 0.091,0.159 0.207,0.312 0.351,0.458 0.144,0.144 0.31,0.269 0.502,0.373 0.192,0.104 0.405,0.157 0.643,0.157 0.276,0 0.531,-0.084 0.765,-0.25 0.234,-0.167 0.376,-0.43 0.423,-0.79 C -6.576,4.187 -6.125,4.055 -5.64,3.93 -5.156,3.806 -4.722,3.636 -4.337,3.421 -3.952,3.206 -3.653,2.912 -3.442,2.537 -3.231,2.163 -3.18,1.664 -3.29,1.04 -3.346,0.721 -3.446,0.416 -3.587,0.125 -3.728,-0.166 -3.884,-0.457 -4.052,-0.749 -4.222,-1.04 -4.379,-1.335 -4.52,-1.632 c -0.143,-0.299 -0.244,-0.614 -0.303,-0.947 -0.042,-0.235 -0.01,-0.453 0.094,-0.655 0.102,-0.2 0.291,-0.301 0.569,-0.301 0.277,0 0.548,0.079 0.812,0.239 0.263,0.159 0.519,0.371 0.767,0.634 0.247,0.263 0.479,0.554 0.695,0.874 0.215,0.318 0.415,0.644 0.598,0.977 0.022,0.042 0.074,0.104 0.159,0.187 0.083,0.083 0.185,0.173 0.307,0.27 0.121,0.097 0.254,0.181 0.398,0.25 C -0.281,-0.035 -0.139,0 0,0"
             style="fill:#000000;fill-opacity:1;fill-rule:nonzero;stroke:none"
             id="path32" />
        </g>
        <g
           id="g34"
           transform="translate(260.21,164.6843)">
          <path
             d="M 0,0 C 0.305,0 0.602,0.105 0.888,0.315 1.175,0.526 1.441,0.8 1.688,1.136 1.934,1.473 2.16,1.848 2.365,2.262 2.569,2.676 2.747,3.079 2.901,3.472 2.955,3.627 3.022,3.805 3.099,4.009 3.176,4.212 3.225,4.37 3.245,4.482 3.253,4.524 3.246,4.591 3.229,4.682 3.209,4.773 3.163,4.864 3.089,4.956 3.016,5.046 2.912,5.127 2.779,5.197 2.645,5.268 2.474,5.303 2.267,5.303 1.906,5.303 1.55,5.208 1.197,5.019 0.845,4.829 0.523,4.573 0.231,4.251 -0.062,3.928 -0.315,3.556 -0.529,3.136 -0.741,2.714 -0.886,2.28 -0.966,1.831 -1.062,1.283 -1.027,0.841 -0.857,0.505 -0.686,0.168 -0.401,0 0,0 m 9.533,3.464 c 0.36,0 0.625,-0.131 0.794,-0.391 C 10.496,2.812 10.55,2.513 10.491,2.174 10.466,2.033 10.425,1.921 10.369,1.836 9.648,0.497 8.887,-0.536 8.087,-1.261 7.286,-1.988 6.394,-2.35 5.409,-2.35 4.745,-2.35 4.207,-2.194 3.797,-1.882 3.388,-1.571 3.109,-1.158 2.965,-0.645 2.463,-1.213 1.926,-1.639 1.357,-1.924 0.786,-2.208 0.127,-2.35 -0.621,-2.35 c -0.569,0 -1.052,0.113 -1.449,0.337 -0.397,0.225 -0.707,0.528 -0.931,0.908 -0.224,0.38 -0.364,0.823 -0.421,1.33 -0.056,0.506 -0.035,1.04 0.065,1.604 0.129,0.731 0.375,1.445 0.741,2.142 0.365,0.696 0.814,1.311 1.345,1.846 0.53,0.535 1.137,0.965 1.818,1.288 C 1.228,7.428 1.956,7.59 2.732,7.59 3.204,7.59 3.639,7.52 4.036,7.378 4.435,7.237 4.769,7.032 5.041,6.763 5.312,6.495 5.504,6.167 5.616,5.777 5.726,5.389 5.74,4.947 5.652,4.453 5.565,3.958 5.461,3.526 5.34,3.159 5.221,2.792 5.123,2.396 5.049,1.972 4.943,1.378 4.953,0.901 5.077,0.54 5.201,0.18 5.442,0 5.803,0 c 0.194,0 0.382,0.046 0.565,0.139 0.183,0.092 0.37,0.249 0.561,0.47 0.191,0.221 0.402,0.51 0.631,0.866 0.23,0.356 0.487,0.791 0.772,1.304 0.103,0.2 0.271,0.364 0.502,0.492 0.23,0.128 0.463,0.193 0.699,0.193"
             style="fill:#000000;fill-opacity:1;fill-rule:nonzero;stroke:none"
             id="path36" />
        </g>
        <g
           id="g38"
           transform="translate(270.2918,174.9156)">
          <path
             d="M 0,0 C 0.059,0.333 0.227,0.617 0.504,0.853 0.782,1.089 1.079,1.206 1.399,1.206 1.732,1.206 1.991,1.089 2.178,0.853 2.365,0.617 2.43,0.333 2.371,0 2.313,-0.332 2.149,-0.613 1.879,-0.842 1.61,-1.071 1.31,-1.185 0.977,-1.185 0.658,-1.185 0.4,-1.071 0.205,-0.842 0.01,-0.613 -0.058,-0.332 0,0 m 4.939,-6.786 c 0.36,0 0.629,-0.127 0.806,-0.379 C 5.922,-7.419 5.981,-7.72 5.919,-8.072 5.896,-8.198 5.856,-8.311 5.797,-8.409 5.47,-8.999 5.124,-9.55 4.757,-10.063 4.389,-10.576 3.991,-11.018 3.565,-11.391 3.14,-11.763 2.678,-12.055 2.183,-12.265 c -0.494,-0.21 -1.031,-0.316 -1.614,-0.316 -1.123,0 -1.874,0.398 -2.254,1.195 -0.379,0.796 -0.414,2.076 -0.103,3.838 0.16,0.903 0.311,1.668 0.456,2.295 0.146,0.628 0.301,1.135 0.466,1.523 0.167,0.388 0.358,0.666 0.574,0.835 0.217,0.169 0.485,0.254 0.804,0.254 0.374,0 0.641,-0.141 0.798,-0.426 0.159,-0.283 0.201,-0.63 0.129,-1.04 C 1.338,-4.519 1.202,-5.036 1.031,-5.659 0.858,-6.283 0.687,-7.077 0.516,-8.04 0.374,-8.848 0.352,-9.429 0.448,-9.784 c 0.098,-0.353 0.319,-0.531 0.666,-0.531 0.416,0 0.829,0.245 1.242,0.734 0.412,0.489 0.871,1.186 1.377,2.094 0.102,0.184 0.27,0.347 0.502,0.488 0.234,0.142 0.468,0.213 0.704,0.213"
             style="fill:#000000;fill-opacity:1;fill-rule:nonzero;stroke:none"
             id="path40" />
        </g>
        <g
           id="g42"
           transform="translate(278.6153,164.5598)">
          <path
             d="m 0,0 c 0.249,0 0.495,0.041 0.74,0.126 0.243,0.083 0.48,0.17 0.71,0.261 0.232,0.091 0.459,0.178 0.68,0.262 0.224,0.084 0.446,0.126 0.668,0.126 0.304,0 0.544,-0.101 0.717,-0.302 C 3.687,0.271 3.747,0.018 3.693,-0.288 3.636,-0.607 3.482,-0.888 3.231,-1.132 2.98,-1.375 2.664,-1.58 2.281,-1.746 1.898,-1.913 1.47,-2.038 0.998,-2.122 0.525,-2.205 0.047,-2.246 -0.438,-2.246 c -0.915,0 -1.668,0.139 -2.257,0.417 -0.587,0.279 -1.044,0.651 -1.373,1.118 -0.326,0.466 -0.526,1.002 -0.599,1.607 -0.075,0.606 -0.051,1.243 0.067,1.911 0.123,0.696 0.347,1.344 0.675,1.942 0.327,0.599 0.734,1.117 1.22,1.556 0.486,0.439 1.032,0.78 1.636,1.023 0.604,0.244 1.247,0.366 1.927,0.366 C 1.37,7.694 1.82,7.617 2.21,7.464 2.599,7.31 2.919,7.104 3.172,6.846 3.424,6.587 3.602,6.28 3.707,5.925 3.81,5.568 3.825,5.181 3.751,4.762 3.731,4.651 3.688,4.484 3.62,4.263 3.554,4.041 3.453,3.823 3.319,3.608 3.182,3.393 3.008,3.202 2.792,3.036 2.575,2.869 2.3,2.786 1.967,2.786 1.606,2.786 1.34,2.899 1.163,3.122 0.988,3.346 0.925,3.597 0.974,3.877 1.001,4.03 1.056,4.166 1.139,4.285 1.224,4.404 1.286,4.581 1.327,4.819 1.404,5.252 1.081,5.469 0.361,5.469 0.028,5.469 -0.281,5.392 -0.563,5.239 -0.848,5.085 -1.102,4.885 -1.324,4.641 -1.548,4.396 -1.735,4.124 -1.884,3.824 -2.035,3.524 -2.137,3.22 -2.19,2.912 -2.36,1.948 -2.249,1.221 -1.857,0.733 -1.466,0.244 -0.846,0 0,0"
             style="fill:#000000;fill-opacity:1;fill-rule:nonzero;stroke:none"
             id="path44" />
        </g>
        <g
           id="g46"
           transform="translate(294.947,162.4797)">
          <path
             d="m 0,0 c -1.012,0 -1.903,0.16 -2.671,0.478 -0.77,0.318 -1.396,0.776 -1.879,1.372 -0.485,0.597 -0.81,1.328 -0.975,2.196 -0.167,0.868 -0.153,1.851 0.04,2.948 0.182,1.031 0.489,2.006 0.922,2.929 0.433,0.921 0.964,1.728 1.592,2.419 0.628,0.691 1.345,1.24 2.152,1.647 0.806,0.406 1.674,0.61 2.603,0.61 0.527,0 0.994,-0.082 1.401,-0.245 C 3.594,14.191 3.928,13.968 4.191,13.682 4.452,13.397 4.635,13.056 4.739,12.663 4.843,12.269 4.853,11.841 4.772,11.379 4.703,10.985 4.588,10.615 4.431,10.268 4.272,9.922 4.084,9.623 3.867,9.372 3.649,9.121 3.414,8.924 3.16,8.781 2.906,8.638 2.647,8.567 2.384,8.567 2.051,8.567 1.786,8.678 1.59,8.899 1.392,9.121 1.323,9.392 1.38,9.714 c 0.029,0.161 0.085,0.302 0.168,0.423 0.083,0.121 0.178,0.242 0.283,0.362 0.103,0.121 0.199,0.248 0.285,0.382 0.087,0.135 0.145,0.289 0.175,0.464 0.048,0.268 -0.017,0.492 -0.192,0.674 -0.177,0.181 -0.46,0.272 -0.847,0.272 -0.471,0 -0.934,-0.128 -1.388,-0.383 C -0.59,11.653 -1.01,11.294 -1.397,10.831 -1.783,10.368 -2.123,9.814 -2.417,9.17 -2.712,8.527 -2.926,7.815 -3.063,7.037 -3.186,6.339 -3.211,5.699 -3.133,5.115 c 0.078,-0.584 0.263,-1.087 0.555,-1.51 0.293,-0.423 0.7,-0.751 1.22,-0.986 0.52,-0.235 1.155,-0.352 1.903,-0.352 1.081,0 2.008,0.265 2.782,0.795 0.772,0.53 1.389,1.197 1.851,2.003 C 5.279,5.253 5.445,5.41 5.677,5.538 5.907,5.665 6.14,5.729 6.376,5.729 6.723,5.729 6.99,5.613 7.178,5.382 7.366,5.151 7.432,4.88 7.377,4.567 7.348,4.404 7.295,4.261 7.219,4.139 6.908,3.554 6.517,3.011 6.047,2.508 5.577,2.005 5.038,1.566 4.432,1.193 3.825,0.819 3.153,0.527 2.416,0.316 1.678,0.106 0.873,0 0,0"
             style="fill:#000000;fill-opacity:1;fill-rule:nonzero;stroke:none"
             id="path48" />
        </g>
        <g
           id="g50"
           transform="translate(306.1393,169.925)">
          <path
             d="m 0,0 c -0.154,0 -0.296,-0.062 -0.429,-0.189 -0.133,-0.125 -0.217,-0.286 -0.252,-0.484 -0.075,-0.423 -0.015,-0.852 0.179,-1.287 0.193,-0.436 0.558,-0.785 1.094,-1.049 0.148,0.369 0.255,0.739 0.32,1.108 0.112,0.634 0.067,1.109 -0.133,1.426 C 0.577,-0.159 0.317,0 0,0 M -2.969,-0.915 C -3.1,-1.026 -3.24,-1.213 -3.392,-1.476 -3.541,-1.74 -3.663,-2.135 -3.756,-2.662 -3.817,-3.009 -3.823,-3.335 -3.773,-3.64 c 0.051,-0.305 0.146,-0.568 0.288,-0.79 0.141,-0.222 0.325,-0.398 0.551,-0.53 0.226,-0.132 0.485,-0.198 0.776,-0.198 0.374,0 0.744,0.132 1.109,0.396 -0.646,0.346 -1.146,0.845 -1.503,1.497 -0.357,0.651 -0.496,1.434 -0.417,2.35 m 0.574,-6.53 c -0.721,0 -1.34,0.119 -1.861,0.357 -0.519,0.238 -0.934,0.561 -1.243,0.969 -0.309,0.408 -0.516,0.894 -0.616,1.459 -0.102,0.565 -0.095,1.174 0.02,1.827 0.211,1.197 0.687,2.207 1.43,3.03 0.74,0.823 1.721,1.357 2.944,1.602 0.48,0.367 1.039,0.55 1.677,0.55 0.568,0 1.081,-0.097 1.54,-0.291 C 1.954,1.864 2.335,1.587 2.638,1.225 2.942,0.863 3.152,0.421 3.267,-0.101 3.383,-0.623 3.382,-1.219 3.264,-1.888 3.164,-2.451 3.006,-3 2.786,-3.536 c 0.652,0 1.164,0.09 1.535,0.27 0.371,0.179 0.705,0.442 1.002,0.788 0.19,0.213 0.373,0.404 0.548,0.57 0.174,0.166 0.435,0.249 0.781,0.249 0.361,0 0.631,-0.118 0.812,-0.356 C 7.643,-2.251 7.707,-2.519 7.655,-2.816 7.595,-3.155 7.423,-3.501 7.139,-3.852 6.855,-4.205 6.474,-4.523 5.994,-4.807 5.513,-5.091 4.939,-5.325 4.269,-5.507 3.598,-5.69 2.848,-5.781 2.017,-5.781 H 1.684 c -0.112,0 -0.221,0.006 -0.33,0.02 C 0.807,-6.343 0.212,-6.769 -0.431,-7.04 -1.075,-7.31 -1.729,-7.445 -2.395,-7.445"
             style="fill:#000000;fill-opacity:1;fill-rule:nonzero;stroke:none"
             id="path52" />
        </g>
        <g
           id="g54"
           transform="translate(320.0815,176.1144)">
          <path
             d="m 0,0 c -0.059,-0.338 -0.222,-0.626 -0.486,-0.865 -0.263,-0.239 -0.562,-0.359 -0.894,-0.359 -0.194,0 -0.353,0.044 -0.476,0.132 -0.124,0.088 -0.245,0.187 -0.364,0.297 -0.119,0.11 -0.245,0.209 -0.374,0.296 -0.13,0.088 -0.299,0.132 -0.507,0.132 -0.443,0 -0.816,-0.223 -1.117,-0.67 -0.3,-0.447 -0.518,-1.059 -0.656,-1.835 l -0.24,-1.363 h 1.81 c 0.319,0 0.578,-0.121 0.778,-0.364 0.199,-0.242 0.273,-0.517 0.219,-0.822 -0.061,-0.346 -0.23,-0.633 -0.506,-0.862 -0.276,-0.229 -0.581,-0.344 -0.913,-0.344 h -1.809 l -2.19,-12.415 c -0.059,-0.332 -0.226,-0.613 -0.502,-0.842 -0.276,-0.229 -0.58,-0.343 -0.914,-0.343 -0.332,0 -0.592,0.114 -0.78,0.343 -0.189,0.229 -0.254,0.51 -0.195,0.842 l 2.189,12.415 h -0.707 c -0.291,0 -0.54,0.122 -0.748,0.365 -0.206,0.242 -0.281,0.523 -0.225,0.841 0.054,0.305 0.216,0.58 0.489,0.822 0.271,0.243 0.573,0.364 0.905,0.364 h 0.708 l 0.269,1.528 c 0.126,0.717 0.338,1.366 0.633,1.947 0.297,0.581 0.649,1.076 1.053,1.485 0.405,0.408 0.858,0.72 1.36,0.935 0.503,0.216 1.025,0.324 1.566,0.324 0.359,0 0.708,-0.054 1.042,-0.159 C -1.246,1.72 -0.952,1.579 -0.698,1.403 -0.446,1.227 -0.254,1.016 -0.124,0.77 0.005,0.523 0.048,0.267 0,0"
             style="fill:#000000;fill-opacity:1;fill-rule:nonzero;stroke:none"
             id="path56" />
        </g>
        <g
           id="g58"
           transform="translate(327.7971,176.1144)">
          <path
             d="m 0,0 c -0.059,-0.338 -0.222,-0.626 -0.486,-0.865 -0.263,-0.239 -0.562,-0.359 -0.894,-0.359 -0.194,0 -0.353,0.044 -0.476,0.132 -0.124,0.088 -0.245,0.187 -0.364,0.297 -0.12,0.11 -0.244,0.209 -0.374,0.296 -0.13,0.088 -0.299,0.132 -0.507,0.132 -0.443,0 -0.816,-0.223 -1.117,-0.67 -0.3,-0.447 -0.518,-1.059 -0.656,-1.835 l -0.24,-1.363 h 1.81 c 0.319,0 0.578,-0.121 0.777,-0.364 0.199,-0.242 0.274,-0.517 0.22,-0.822 -0.061,-0.346 -0.23,-0.633 -0.506,-0.862 -0.276,-0.229 -0.581,-0.344 -0.913,-0.344 h -1.809 l -2.19,-12.415 c -0.059,-0.332 -0.225,-0.613 -0.502,-0.842 -0.276,-0.229 -0.58,-0.343 -0.914,-0.343 -0.332,0 -0.592,0.114 -0.78,0.343 -0.188,0.229 -0.254,0.51 -0.195,0.842 l 2.189,12.415 h -0.707 c -0.291,0 -0.54,0.122 -0.748,0.365 -0.206,0.242 -0.281,0.523 -0.225,0.841 0.054,0.305 0.217,0.58 0.488,0.822 0.272,0.243 0.574,0.364 0.906,0.364 h 0.708 l 0.269,1.528 c 0.126,0.717 0.338,1.366 0.633,1.947 0.297,0.581 0.649,1.076 1.053,1.485 0.405,0.408 0.858,0.72 1.36,0.935 0.503,0.216 1.025,0.324 1.566,0.324 0.359,0 0.708,-0.054 1.042,-0.159 C -1.246,1.72 -0.952,1.579 -0.698,1.403 -0.446,1.227 -0.254,1.016 -0.124,0.77 0.005,0.523 0.048,0.267 0,0"
             style="fill:#000000;fill-opacity:1;fill-rule:nonzero;stroke:none"
             id="path60" />
        </g>
        <g
           id="g62"
           transform="translate(330.6593,170.299)">
          <path
             d="m 0,0 c -0.624,0 -1.164,-0.231 -1.619,-0.694 -0.457,-0.463 -0.803,-1.015 -1.041,-1.655 1.136,0 1.971,0.152 2.503,0.458 0.532,0.305 0.834,0.661 0.905,1.063 C 0.79,-0.59 0.753,-0.391 0.635,-0.235 0.516,-0.078 0.305,0 0,0 m -0.531,-7.965 c -0.914,0 -1.707,0.127 -2.376,0.381 -0.67,0.254 -1.204,0.602 -1.605,1.047 -0.399,0.444 -0.671,0.966 -0.815,1.565 -0.143,0.599 -0.154,1.251 -0.03,1.956 0.12,0.677 0.347,1.319 0.684,1.925 0.335,0.606 0.755,1.139 1.258,1.597 0.504,0.458 1.076,0.817 1.719,1.079 0.641,0.26 1.323,0.39 2.045,0.39 0.554,0 1.025,-0.078 1.413,-0.236 C 2.151,1.581 2.454,1.373 2.671,1.115 2.889,0.857 3.035,0.559 3.107,0.222 3.178,-0.115 3.182,-0.47 3.116,-0.843 2.937,-1.861 2.369,-2.682 1.414,-3.306 0.458,-3.93 -0.921,-4.243 -2.724,-4.243 c 0.094,-0.491 0.373,-0.871 0.84,-1.138 0.465,-0.267 1.094,-0.4 1.884,-0.4 1.206,0 2.229,0.257 3.069,0.773 0.839,0.516 1.533,1.269 2.082,2.259 0.102,0.181 0.265,0.341 0.49,0.481 0.226,0.139 0.464,0.209 0.713,0.209 0.36,0 0.629,-0.128 0.806,-0.386 C 7.336,-2.703 7.397,-2.984 7.344,-3.29 7.318,-3.429 7.275,-3.562 7.211,-3.687 6.902,-4.257 6.519,-4.8 6.062,-5.314 5.602,-5.83 5.059,-6.281 4.429,-6.671 3.797,-7.061 3.074,-7.374 2.255,-7.61 1.437,-7.846 0.509,-7.965 -0.531,-7.965"
             style="fill:#000000;fill-opacity:1;fill-rule:nonzero;stroke:none"
             id="path64" />
        </g>
        <g
           id="g66"
           transform="translate(341.0948,170.1537)">
          <path
             d="m 0,0 c -0.264,0 -0.53,-0.051 -0.796,-0.153 -0.268,-0.102 -0.518,-0.241 -0.75,-0.418 -0.232,-0.177 -0.443,-0.39 -0.633,-0.641 -0.19,-0.252 -0.338,-0.52 -0.443,-0.805 0.581,0 1.079,0.033 1.494,0.102 0.414,0.067 0.756,0.159 1.026,0.275 0.27,0.115 0.472,0.244 0.609,0.387 0.136,0.142 0.217,0.288 0.243,0.438 0.034,0.19 0.004,0.373 -0.09,0.55 C 0.567,-0.089 0.346,0 0,0 M 3.012,-5.802 C 2.914,-6.357 2.503,-6.835 1.781,-7.237 1.058,-7.639 0.052,-7.84 -1.237,-7.84 c -0.804,0 -1.492,0.127 -2.063,0.383 -0.573,0.255 -1.031,0.607 -1.374,1.056 -0.344,0.448 -0.572,0.97 -0.681,1.564 -0.111,0.593 -0.106,1.228 0.014,1.905 0.119,0.677 0.345,1.318 0.683,1.926 0.335,0.607 0.755,1.142 1.259,1.605 0.504,0.462 1.079,0.828 1.723,1.097 C -1.034,1.965 -0.351,2.1 0.371,2.1 0.912,2.1 1.375,2.024 1.764,1.872 2.155,1.72 2.469,1.52 2.71,1.272 2.95,1.023 3.11,0.736 3.193,0.411 3.273,0.086 3.282,-0.255 3.219,-0.615 3.043,-1.609 2.44,-2.414 1.411,-3.029 c -1.032,-0.615 -2.454,-0.922 -4.27,-0.922 0.085,-0.534 0.321,-0.948 0.705,-1.243 0.385,-0.295 0.869,-0.442 1.452,-0.442 0.305,0 0.586,0.045 0.844,0.136 0.259,0.089 0.506,0.193 0.742,0.311 0.235,0.118 0.456,0.222 0.658,0.312 0.203,0.09 0.395,0.135 0.575,0.135 0.347,0 0.595,-0.107 0.744,-0.322 0.149,-0.215 0.199,-0.461 0.151,-0.738"
             style="fill:#000000;fill-opacity:1;fill-rule:nonzero;stroke:none"
             id="path68" />
        </g>
      </g>
    </g>
  </g>
</svg>
