<svg width="128" height="128" viewBox="0 0 128 128" fill="none" xmlns="http://www.w3.org/2000/svg">
<path d="M27.5772 102.746C13.2716 102.746 1.63583 91.1098 1.63583 76.8042C1.63583 62.4986 13.2716 50.8628 27.5772 50.8628C29.3639 50.8628 31.1302 51.046 32.864 51.4123C36.7833 36.6142 50.2138 26 65.9724 26C84.8688 26 100.241 41.3719 100.241 60.2683C100.241 79.1647 84.8688 94.5366 65.9724 94.5366C60.2054 94.5366 54.65 93.1122 49.6563 90.3813C48.7446 91.8953 47.6864 93.2913 46.494 94.5611C41.6061 99.7624 34.7158 102.746 27.5813 102.746H27.5772ZM27.5772 59.4747C18.0252 59.4747 10.2518 67.2482 10.2518 76.8001C10.2518 86.3521 18.0252 94.1256 27.5772 94.1256C32.4122 94.1256 36.8972 92.1843 40.2101 88.6598C41.7729 86.9952 42.9898 84.9725 43.8282 82.6445C43.8282 82.6445 45.3137 78.7455 44.6869 74.6228C46.7951 77.5734 50.4865 80.6706 50.4865 80.6706C55 84.0974 60.3519 85.9126 65.9724 85.9126C80.1193 85.9126 91.6248 74.403 91.6248 60.2602C91.6248 46.1174 80.1152 34.6078 65.9724 34.6078C52.8633 34.6078 41.9032 44.4243 40.4828 57.4398C40.4828 57.4398 40.0107 60.8503 40.902 65.8196C37.8903 62.5027 34.4797 60.9195 34.4797 60.9195C32.2698 59.959 29.9499 59.4706 27.5772 59.4706V59.4747Z" fill="#007BC7"/>
<path d="M83.2815 60.2642C83.2815 58.3392 82.8949 56.524 82.3129 54.7943C80.9861 56.3815 79.0163 57.4153 76.786 57.4153C72.7935 57.4153 69.5579 54.1797 69.5579 50.1872C69.5579 47.7494 70.7748 45.6005 72.6225 44.294C70.5713 43.4394 68.3248 42.9591 65.9683 42.9591C56.4082 42.9591 48.6551 50.7081 48.6551 60.2723C48.6551 69.8365 56.4041 77.5856 65.9683 77.5856C75.5325 77.5856 83.2815 69.8365 83.2815 60.2723V60.2642Z" fill="#F39800"/>
<path d="M106.622 102.746C95.2877 102.746 86.0653 93.5232 86.0653 82.1886C86.0653 70.854 95.2877 61.6317 106.622 61.6317C117.957 61.6317 127.179 70.854 127.179 82.1886C127.179 93.5232 117.957 102.746 106.622 102.746ZM106.622 70.2476C100.037 70.2476 94.6813 75.6035 94.6813 82.1886C94.6813 88.7736 100.037 94.1296 106.622 94.1296C113.207 94.1296 118.563 88.7736 118.563 82.1886C118.563 75.6035 113.207 70.2476 106.622 70.2476Z" fill="#007BC7"/>
</svg>
