<svg width="209" height="54" viewBox="0 0 209 54" fill="none" xmlns="http://www.w3.org/2000/svg">
<path d="M100.6 44.2H104.19V43.16H100.6V42.43H104.58V41.42H100.6V40.65H99.56V41.42H95.57V42.43H99.56V43.16H95.97V44.2H99.56V44.91H95.4V45.95H104.74V44.91H100.6V44.2Z" fill="white"/>
<path d="M93.04 44.43L94.16 46.78L95.09 46.34L93.97 44.03L93.04 44.43Z" fill="white"/>
<path d="M103.7 46.57C103.6 46.47 103.48 46.42 103.34 46.42H96.92C96.78 46.42 96.65 46.47 96.56 46.58C96.47 46.68 96.42 46.8 96.42 46.94V53.01H97.43V51.08H102.84V51.8C102.84 51.97 102.7 52.11 102.53 52.11H101.95V53.15H102.84C103.4 53.15 103.85 52.7 103.85 52.14V46.95C103.85 46.81 103.8 46.69 103.7 46.59V46.57ZM102.84 49.3V50.03H97.43V49.3H102.84ZM102.84 47.45V48.29H97.43V47.45H102.84Z" fill="white"/>
<path d="M94.23 47.54C94.03 49.24 93.6 50.89 92.94 52.43L92.87 52.6L93.82 53.02L93.89 52.85C94.57 51.25 95.03 49.5 95.25 47.64L95.27 47.45L94.25 47.36L94.23 47.54Z" fill="white"/>
<path d="M95.09 43.13L93.97 40.7L93.04 41.12L94.16 43.57L95.09 43.13Z" fill="white"/>
<path d="M114.01 49.17V44.35C114.01 44.21 113.95 44.08 113.85 43.98C113.75 43.88 113.62 43.83 113.49 43.83H112.62V42.45H114.09V41.4H108.89V42.45H110.24V43.83H109.38C109.24 43.83 109.12 43.88 109.02 43.97C108.92 44.06 108.87 44.19 108.87 44.34V51.71C108.87 52.01 109.11 52.25 109.41 52.25H113.49C113.63 52.25 113.75 52.2 113.85 52.1C113.96 52 114.01 51.87 114.01 51.73V49.15V49.17ZM112.96 50.21V51.22H109.88V50.21H112.96ZM112.96 44.86V47.1H112.71C112.71 47.1 112.68 47.1 112.66 47.05C112.63 46.97 112.61 46.88 112.61 46.78V44.86H112.96ZM109.88 48.5C110.33 48.26 110.67 47.89 110.9 47.4C111.14 46.88 111.26 46.31 111.25 45.7V44.87H111.57V46.79C111.57 47.14 111.66 47.46 111.85 47.73C112.05 48.02 112.34 48.16 112.71 48.16H112.96V49.19H109.88V48.51V48.5ZM111.25 43.84V42.46H111.57V43.84H111.25ZM109.88 47.12V44.87H110.23V45.71C110.23 46.04 110.19 46.38 110.07 46.72C110.02 46.87 109.96 47.01 109.88 47.13V47.12ZM115.82 43.29V42.47H119.37V43.29H115.82ZM115.82 45.16V44.34H119.37V45.16H115.82ZM115.56 46.21H117.16V47.33H115.39C115.31 47.33 115.25 47.27 115.25 47.19V46.59H114.26V47.62C114.26 48.03 114.59 48.36 115 48.36H117.17V49.58H114.79V50.62H117.17V51.76H114.26V52.81H121.12V51.76H118.21V50.62H120.56V49.58H118.21V48.36H120.68V47.34H118.21V46.22H119.9C120.03 46.22 120.15 46.17 120.26 46.06C120.36 45.96 120.42 45.83 120.42 45.69V41.94C120.42 41.8 120.37 41.67 120.26 41.57C120.16 41.47 120.03 41.41 119.91 41.41H115.32C115.18 41.41 115.06 41.46 114.95 41.56C114.84 41.66 114.78 41.79 114.78 41.93V45.68C114.78 45.82 114.84 45.95 114.95 46.05C115.05 46.14 115.16 46.19 115.28 46.2H115.57L115.56 46.21Z" fill="white"/>
<path d="M135.04 50.14V46.23C135.04 46.08 134.99 45.95 134.9 45.86C134.8 45.76 134.68 45.72 134.53 45.72H131.45C131.3 45.72 131.17 45.77 131.07 45.86C130.96 45.96 130.91 46.09 130.91 46.23V50.14C130.91 50.28 130.97 50.41 131.07 50.51C131.17 50.61 131.3 50.66 131.45 50.66H134.53C134.67 50.66 134.79 50.61 134.89 50.51C134.99 50.41 135.04 50.29 135.04 50.15V50.14ZM134 46.74V49.63H131.95V46.74H134Z" fill="white"/>
<path d="M126.93 47.52C126.72 49.26 126.28 50.93 125.63 52.48L125.56 52.65L126.51 53.07L126.58 52.9C127.29 51.22 127.76 49.45 127.96 47.63L127.98 47.44L126.95 47.33L126.93 47.51V47.52Z" fill="white"/>
<path d="M125.74 44.4L126.87 46.83L127.81 46.42L126.67 43.97L125.74 44.4Z" fill="white"/>
<path d="M135.55 43.65H130.4V44.7H135.55V43.65Z" fill="white"/>
<path d="M127.8 43.08L126.67 40.6L125.74 41.05L126.87 43.52L127.8 43.08Z" fill="white"/>
<path d="M136.97 41.48C136.87 41.38 136.74 41.33 136.59 41.33H129.37C129.23 41.33 129.11 41.38 129.01 41.48C128.91 41.58 128.86 41.71 128.86 41.86V53.16H129.88V42.38H136.08V51.84C136.08 52 135.95 52.12 135.8 52.12H135.24V53.14H136.21C136.71 53.14 137.12 52.73 137.12 52.23V41.86C137.12 41.71 137.07 41.58 136.97 41.48Z" fill="white"/>
<path d="M142.59 48.92C142.35 50.28 142.05 51.43 141.69 52.34L141.62 52.51L142.57 52.91L142.64 52.73C143.03 51.74 143.36 50.52 143.61 49.11L143.64 48.93L142.61 48.74L142.58 48.92H142.59Z" fill="white"/>
<path d="M150.73 51.31C150.23 51.77 149.79 52.01 149.42 52.01H146.59C146.32 52.01 146.11 51.94 145.98 51.83C145.85 51.68 145.78 51.48 145.78 51.21V48.8H144.74V51.18C144.72 51.42 144.75 51.67 144.84 51.9C144.92 52.13 145.05 52.34 145.21 52.53C145.54 52.88 146.01 53.06 146.58 53.06H149.41C149.79 53.05 150.16 52.95 150.5 52.77C150.83 52.59 151.16 52.34 151.49 52.02L151.64 51.88L150.84 51.21L150.72 51.32L150.73 51.31Z" fill="white"/>
<path d="M152.17 48.78L152.09 48.61L151.16 49.08L151.25 49.25C151.7 50.12 152.19 51.22 152.72 52.52L152.79 52.69L153.74 52.29L153.67 52.12C153.16 50.9 152.66 49.78 152.17 48.78Z" fill="white"/>
<path d="M153.77 44.81H150.92L151.87 43.15L150.98 42.64L149.85 44.63L150.15 44.81H148.21V42.47H149.88C151.04 42.47 152.12 42.3 153.1 41.97L153.27 41.91L152.97 40.94L152.8 40.99C151.75 41.27 150.77 41.42 149.87 41.42H142.15V42.47H147.15V44.81H145.01L145.32 44.63L144.19 42.64L143.28 43.15L144.23 44.81H141.36V45.86H144.41C144.1 46.29 143.73 46.68 143.31 47.03C142.79 47.45 142.22 47.79 141.59 48.04L141.42 48.11L141.8 49.1L141.98 49.03C142.78 48.71 143.52 48.26 144.17 47.69C144.79 47.15 145.29 46.54 145.66 45.86H147.15V48.59H148.2V45.86H149.5C149.87 46.53 150.37 47.15 150.99 47.69C151.64 48.25 152.37 48.7 153.17 49.03L153.34 49.1L153.74 48.12L153.57 48.05C152.95 47.8 152.37 47.46 151.85 47.04C151.42 46.69 151.05 46.3 150.74 45.87H153.77V44.82V44.81Z" fill="white"/>
<path d="M148.62 48.63L147.65 48.96L148.39 51.15L149.38 50.81L148.62 48.63Z" fill="white"/>
<path d="M125.59 14.55C126.584 14.55 127.39 13.7441 127.39 12.75C127.39 11.7559 126.584 10.95 125.59 10.95C124.596 10.95 123.79 11.7559 123.79 12.75C123.79 13.7441 124.596 14.55 125.59 14.55Z" fill="white"/>
<path d="M96.3 10.95H93.82C93.6378 10.95 93.49 11.0977 93.49 11.28V30.15C93.49 30.3322 93.6378 30.48 93.82 30.48H96.3C96.4823 30.48 96.63 30.3322 96.63 30.15V11.28C96.63 11.0977 96.4823 10.95 96.3 10.95Z" fill="white"/>
<path d="M110.44 20.52V30.15C110.44 30.33 110.29 30.48 110.11 30.48H107.63C107.45 30.48 107.3 30.33 107.3 30.15V21.97C107.3 20.57 106.26 19.32 104.86 19.25C103.37 19.17 102.13 20.35 102.13 21.82V30.15C102.13 30.33 101.98 30.48 101.8 30.48H99.32C99.14 30.48 98.99 30.33 98.99 30.15V16.92C98.99 16.74 99.14 16.59 99.32 16.59H101.8C101.98 16.59 102.13 16.74 102.13 16.92V17.84C102.96 16.68 104.31 15.93 105.85 15.93C108.16 15.93 110.07 17.63 110.38 19.86C110.41 20.07 110.43 20.29 110.43 20.51L110.44 20.52Z" fill="white"/>
<path d="M208.49 20.52V30.02C208.49 30.28 208.28 30.48 208.03 30.48H205.82C205.56 30.48 205.36 30.27 205.36 30.02V21.97C205.36 20.57 204.32 19.32 202.92 19.25C201.43 19.17 200.19 20.35 200.19 21.82V30.02C200.19 30.28 199.98 30.48 199.73 30.48H197.52C197.26 30.48 197.06 30.27 197.06 30.02V17.06C197.06 16.8 197.27 16.6 197.52 16.6H199.73C199.99 16.6 200.19 16.81 200.19 17.06V17.85C201.02 16.69 202.37 15.94 203.91 15.94C206.22 15.94 208.13 17.64 208.44 19.87C208.47 20.08 208.49 20.3 208.49 20.52Z" fill="white"/>
<path d="M153.74 20.52V30.15C153.74 30.33 153.59 30.48 153.41 30.48H150.93C150.75 30.48 150.6 30.33 150.6 30.15V21.97C150.6 20.57 149.56 19.32 148.16 19.25C146.67 19.17 145.43 20.35 145.43 21.82V30.15C145.43 30.33 145.28 30.48 145.1 30.48H142.62C142.44 30.48 142.29 30.33 142.29 30.15V11.28C142.29 11.1 142.44 10.95 142.62 10.95H145.1C145.28 10.95 145.43 11.1 145.43 11.28V17.84C146.26 16.68 147.61 15.93 149.15 15.93C151.46 15.93 153.37 17.63 153.68 19.86C153.71 20.07 153.73 20.29 153.73 20.51L153.74 20.52Z" fill="white"/>
<path d="M126.83 15.92H124.35C124.168 15.92 124.02 16.0677 124.02 16.25V30.15C124.02 30.3322 124.168 30.48 124.35 30.48H126.83C127.012 30.48 127.16 30.3322 127.16 30.15V16.25C127.16 16.0677 127.012 15.92 126.83 15.92Z" fill="white"/>
<path d="M162.88 18.74V16.26C162.88 16.08 162.73 15.93 162.55 15.93H159.28V13.08C159.28 12.9 159.13 12.75 158.95 12.75H156.47C156.29 12.75 156.14 12.9 156.14 13.08V27.52C156.14 29.15 157.46 30.46 159.08 30.46H162.54C162.72 30.46 162.87 30.31 162.87 30.13V27.65C162.87 27.47 162.72 27.32 162.54 27.32H160C159.6 27.32 159.27 26.99 159.27 26.59V19.06H162.54C162.72 19.06 162.87 18.91 162.87 18.73L162.88 18.74Z" fill="white"/>
<path d="M177.24 11.16L172.75 17.9L168.3 11.16C168.21 11.03 168.07 10.95 167.91 10.95H165.49C165.23 10.95 165.03 11.16 165.03 11.41V30.01C165.03 30.27 165.24 30.47 165.49 30.47H167.7C167.96 30.47 168.16 30.26 168.16 30.01V16.64L171.84 22.22C171.94 22.37 172.11 22.46 172.29 22.46H173.19C173.37 22.46 173.54 22.37 173.64 22.22L177.35 16.61V30C177.35 30.26 177.56 30.46 177.81 30.46H180.02C180.28 30.46 180.48 30.25 180.48 30V11.4C180.48 11.14 180.27 10.94 180.02 10.94H177.62C177.47 10.94 177.32 11.02 177.23 11.15L177.24 11.16Z" fill="white"/>
<path d="M136.8 16.37V16.98C135.98 16.25 134.9 15.83 133.71 15.84C131.17 15.88 129.19 18.06 129.19 20.6V25.15C129.19 26.62 129.87 27.92 130.94 28.75C131.72 29.37 132.71 29.74 133.77 29.74C134.93 29.74 135.98 29.32 136.79 28.6V29.25C136.74 30.31 136.16 32.02 134.02 32.02C131.88 32.02 130.98 31.29 130.98 31.29C130.76 31.16 130.62 31.25 130.54 31.45L129.71 33.54C129.59 33.74 129.71 33.83 129.82 33.9C129.82 33.9 131.72 34.93 134.07 34.93C137.58 34.93 139.94 32.51 139.94 29.25V16.47C139.94 16.29 139.79 16.14 139.61 16.14H137C137 16.14 136.8 16.12 136.8 16.37ZM136.75 24C136.75 25.22 135.76 26.21 134.54 26.21C133.32 26.21 132.33 25.22 132.33 24V21.73C132.33 20.5 133.32 19.52 134.54 19.52C135.15 19.52 135.7 19.77 136.1 20.16C136.5 20.55 136.75 21.12 136.75 21.73V24Z" fill="white"/>
<path d="M188.77 15.98C184.77 15.98 181.53 19.22 181.53 23.22C181.53 27.22 184.77 30.46 188.77 30.46C192.77 30.46 196.01 27.22 196.01 23.22C196.01 19.22 192.77 15.98 188.77 15.98ZM188.77 27.34C186.49 27.34 184.65 25.49 184.65 23.22C184.65 20.95 186.5 19.1 188.77 19.1C191.04 19.1 192.89 20.95 192.89 23.22C192.89 25.49 191.04 27.34 188.77 27.34Z" fill="white"/>
<path d="M117.44 30.42C114.72 30.47 112.87 29.16 112.17 28.52C111.99 28.36 112 28.09 112.17 27.92L113.96 26.26C114.11 26.12 114.35 26.11 114.5 26.25C114.89 26.6 115.76 27.17 117.35 27.23C118.55 27.27 119.61 27.06 119.74 26.41C119.87 25.8 119.62 25.51 117.74 25.01L117.62 24.98C115.42 24.39 111.98 23.41 111.92 20.11C111.89 18.52 112.84 16.01 117.47 16.01C119.86 16.01 121.71 17.14 122.49 17.71C122.7 17.86 122.71 18.16 122.52 18.33L120.71 20.01C120.58 20.14 120.38 20.16 120.22 20.06C119.83 19.82 119 19.39 117.76 19.25C116.59 19.12 115.28 19.25 115.17 19.98C115.01 21.07 117.59 21.53 118.49 21.77L118.61 21.8C120.84 22.4 122.97 23.49 122.97 26.31C122.97 27.33 122.63 28.23 121.94 28.94C120.97 29.92 119.46 30.42 117.45 30.42H117.44Z" fill="white"/>
<path d="M18.45 52.68C8.81 52.68 0.970001 44.84 0.970001 35.2C0.970001 25.56 8.81 17.72 18.45 17.72C19.65 17.72 20.84 17.84 22.01 18.09C24.65 8.12 33.7 0.970001 44.31 0.970001C57.04 0.970001 67.4 11.33 67.4 24.06C67.4 36.79 57.04 47.15 44.31 47.15C40.42 47.15 36.68 46.19 33.32 44.35C32.7 45.37 31.99 46.31 31.19 47.17C27.9 50.67 23.25 52.68 18.45 52.68ZM18.45 23.53C12.01 23.53 6.78 28.77 6.78 35.2C6.78 41.63 12.02 46.87 18.45 46.87C21.71 46.87 24.73 45.56 26.96 43.19C28.01 42.07 28.83 40.71 29.4 39.14C29.4 39.14 30.4 36.51 29.98 33.74C31.4 35.73 33.89 37.82 33.89 37.82C36.93 40.13 40.54 41.35 44.32 41.35C53.85 41.35 61.6 33.6 61.6 24.07C61.6 14.54 53.85 6.78999 44.32 6.78999C35.49 6.78999 28.11 13.4 27.15 22.17C27.15 22.17 26.83 24.47 27.43 27.82C25.4 25.58 23.1 24.52 23.1 24.52C21.61 23.87 20.05 23.54 18.45 23.54V23.53Z" fill="white"/>
<path d="M55.98 24.06C55.98 22.76 55.72 21.54 55.33 20.37C54.44 21.44 53.11 22.13 51.61 22.13C48.92 22.13 46.74 19.95 46.74 17.26C46.74 15.62 47.56 14.17 48.81 13.29C47.43 12.71 45.92 12.39 44.33 12.39C37.89 12.39 32.67 17.61 32.67 24.05C32.67 30.49 37.89 35.71 44.33 35.71C50.77 35.71 55.99 30.49 55.99 24.05L55.98 24.06Z" fill="#F39800"/>
<path d="M71.7 52.68C64.06 52.68 57.85 46.47 57.85 38.83C57.85 31.19 64.06 24.98 71.7 24.98C79.34 24.98 85.55 31.19 85.55 38.83C85.55 46.47 79.34 52.68 71.7 52.68ZM71.7 30.79C67.26 30.79 63.66 34.4 63.66 38.83C63.66 43.26 67.27 46.87 71.7 46.87C76.13 46.87 79.74 43.26 79.74 38.83C79.74 34.4 76.13 30.79 71.7 30.79Z" fill="white"/>
</svg>
