<svg width="310" height="190" viewBox="0 0 310 190" fill="none" xmlns="http://www.w3.org/2000/svg">
<path d="M64.64 189.13C29.49 189.13 0.899994 160.54 0.899994 125.39C0.899994 90.2401 29.49 61.6501 64.64 61.6501C69.03 61.6501 73.37 62.1001 77.63 63.0001C87.26 26.6401 120.26 0.560059 158.98 0.560059C205.41 0.560059 243.18 38.3301 243.18 84.7601C243.18 131.19 205.41 168.96 158.98 168.96C144.81 168.96 131.16 165.46 118.89 158.75C116.65 162.47 114.05 165.9 111.12 169.02C99.11 181.8 82.18 189.13 64.65 189.13H64.64ZM64.64 82.8101C41.17 82.8101 22.07 101.91 22.07 125.38C22.07 148.85 41.17 167.95 64.64 167.95C76.52 167.95 87.54 163.18 95.68 154.52C99.52 150.43 102.51 145.46 104.57 139.74C104.57 139.74 108.22 130.16 106.68 120.03C111.86 127.28 120.93 134.89 120.93 134.89C132.02 143.31 145.17 147.77 158.98 147.77C193.74 147.77 222.01 119.49 222.01 84.7401C222.01 49.9901 193.73 21.7101 158.98 21.7101C126.77 21.7101 99.84 45.8301 96.35 77.8101C96.35 77.8101 95.19 86.1901 97.38 98.4001C89.98 90.2501 81.6 86.3601 81.6 86.3601C76.17 84.0001 70.47 82.8001 64.64 82.8001V82.8101Z" fill="#007BC7"/>
<path d="M201.51 84.75C201.51 80.02 200.56 75.56 199.13 71.31C195.87 75.21 191.03 77.75 185.55 77.75C175.74 77.75 167.79 69.8 167.79 59.99C167.79 54 170.78 48.72 175.32 45.51C170.28 43.41 164.76 42.23 158.97 42.23C135.48 42.23 116.43 61.27 116.43 84.77C116.43 108.27 135.47 127.31 158.97 127.31C182.47 127.31 201.51 108.27 201.51 84.77V84.75Z" fill="#F39800"/>
<path d="M258.86 189.13C231.01 189.13 208.35 166.47 208.35 138.62C208.35 110.77 231.01 88.11 258.86 88.11C286.71 88.11 309.37 110.77 309.37 138.62C309.37 166.47 286.71 189.13 258.86 189.13ZM258.86 109.28C242.68 109.28 229.52 122.44 229.52 138.62C229.52 154.8 242.68 167.96 258.86 167.96C275.04 167.96 288.2 154.8 288.2 138.62C288.2 122.44 275.04 109.28 258.86 109.28Z" fill="#007BC7"/>
</svg>
